<svg width="323" height="235" viewBox="0 0 323 235" fill="none" xmlns="http://www.w3.org/2000/svg">
<path d="M283.725 53.0137L283.908 53.4025C284.576 54.828 286.628 54.9004 287.509 53.5956C288.174 52.6109 288.905 51.6175 289.689 50.6351C295.42 50.979 302.238 50.796 308.236 48.2575C319.392 43.5353 316.497 37.2669 307.205 38.2855C301.402 38.9217 294.532 44.5705 289.689 50.6351C288.263 50.5495 286.905 50.4313 285.643 50.3087C284.167 50.1653 283.096 51.6716 283.725 53.0137Z" fill="#46D2FF"/>
<path d="M233.144 111.426L233.371 111.913C234.202 113.697 236.766 113.794 237.871 112.165C238.706 110.937 239.623 109.697 240.607 108.472C247.769 108.92 256.292 108.712 263.797 105.558C277.757 99.6906 274.158 91.8459 262.54 93.0899C255.284 93.8669 246.679 100.906 240.607 108.472C238.824 108.36 237.126 108.208 235.549 108.051C233.705 107.867 232.361 109.747 233.144 111.426Z" fill="#46D2FF"/>
</svg>
