<svg width="323" height="235" viewBox="0 0 323 235" fill="none" xmlns="http://www.w3.org/2000/svg">
<path d="M56.019 123.068C55.5439 122.356 55.0421 121.647 54.5185 120.947C49.9355 122.12 44.427 122.867 39.3581 120.92C29.9292 117.297 31.6711 110.028 39.2501 109.853C43.9841 109.743 50.0481 114.977 54.5185 120.947C55.4164 120.717 56.2786 120.471 57.0952 120.226C58.4556 119.817 59.8745 121.378 59.5047 122.891C59.111 124.502 57.0129 124.557 56.019 123.068Z" fill="#5CD8FF"/>
<path d="M57.7988 108.196C56.8832 106.887 55.9125 105.58 54.8973 104.292C46.8219 106.055 37.0995 107.062 28.0878 103.568C11.3246 97.0678 14.2247 84.9492 27.6226 84.9941C35.9912 85.0222 46.8441 94.0744 54.8973 104.292C56.5608 103.929 58.1544 103.534 59.6575 103.139C62.0091 102.522 64.3897 105.211 63.758 107.796C63.0857 110.546 59.5491 110.699 57.7988 108.196Z" fill="#5CD8FF"/>
</svg>
