<svg width="323" height="235" viewBox="0 0 323 235" fill="none" xmlns="http://www.w3.org/2000/svg">
<path d="M15.1386 145.687C14.7321 145.422 14.3095 145.166 13.8751 144.922C11.4086 146.751 8.33386 148.595 5.06662 148.884C-1.011 149.421 -1.20755 145.079 3.16458 142.997C5.89552 141.697 10.2868 142.903 13.8751 144.922C14.3692 144.555 14.8389 144.189 15.2809 143.837C15.9972 143.265 17.0568 143.74 17.0939 144.656C17.1334 145.63 15.9555 146.22 15.1386 145.687Z" fill="#03BBF9"/>
<path d="M88.1243 27.6414C86.9514 27.1286 85.7113 26.643 84.4271 26.1947C79.1644 29.5207 72.5753 32.9569 65.464 33.8881C52.2358 35.6201 51.5217 28.5791 60.9265 24.573C66.801 22.0707 76.4635 23.4151 84.4271 26.1947C85.7281 25.3726 86.9479 24.5572 88.0746 23.788C89.4331 22.8605 91.2833 23.7203 91.4389 25.3578C91.6039 27.0949 89.723 28.3404 88.1243 27.6414Z" fill="#1FC2FF"/>
</svg>
