<svg width="323" height="235" viewBox="0 0 323 235" fill="none" xmlns="http://www.w3.org/2000/svg">
<path d="M202.418 143.022C201.96 142.861 201.488 142.713 201.009 142.579C199.048 144.942 196.499 147.464 193.394 148.522C187.619 150.488 186.396 146.317 190.147 143.255C192.491 141.343 197.043 141.471 201.009 142.579C201.401 142.105 201.771 141.638 202.116 141.191C202.676 140.465 203.818 140.675 204.072 141.555C204.342 142.493 203.338 143.346 202.418 143.022Z" fill="#03BBF9"/>
<path d="M288.94 76.3506C289.7 76.6972 290.476 77.0283 291.26 77.3411C294.5 73.1985 298.818 68.8822 304.477 67.5455C315.004 65.059 318.139 73.4572 311.653 78.5432C307.601 81.7201 298.973 80.4155 291.26 77.3411C290.681 78.0817 290.137 78.8166 289.625 79.5281C288.677 80.8462 286.301 80.3241 285.683 78.6495C285.026 76.8673 287.07 75.4978 288.94 76.3506Z" fill="#13C1FF"/>
<path d="M278.331 96.0272C278.965 96.316 279.611 96.592 280.265 96.8526C282.964 93.4004 286.563 89.8035 291.279 88.6896C300.051 86.6175 302.663 93.616 297.258 97.8544C293.882 100.502 286.692 99.4146 280.265 96.8526C279.782 97.4697 279.328 98.0822 278.902 98.6751C278.112 99.7736 276.131 99.3384 275.617 97.943C275.069 96.4578 276.773 95.3165 278.331 96.0272Z" fill="#13C1FF"/>
</svg>
