<svg id="Layer_2" xmlns="http://www.w3.org/2000/svg" xmlns:xlink="http://www.w3.org/1999/xlink" viewBox="0 0 654.4 654.4">
  <defs>
    <style>
      .cls-1 {
        fill: url(#Shades_-_003-5);
      }

      .cls-2 {
        fill: url(#Shades_-_003-4);
      }

      .cls-3 {
        fill: url(#Shades_-_003);
      }

      .cls-4 {
        fill: url(#Shades_-_003-2);
      }

      .cls-5 {
        fill: url(#Shades_-_003-8);
      }

      .cls-6 {
        fill: url(#Shades_-_003-6);
      }

      .cls-7 {
        fill: url(#Shades_-_003-3);
      }

      .cls-8 {
        fill: #e01a4f;
      }

      .cls-9 {
        fill: url(#Shades_-_003-7);
      }
    </style>
    <linearGradient id="Shades_-_003" data-name="Shades - 003" x1="4811.37" y1="1569.3" x2="4763.6" y2="1521.53" gradientTransform="translate(5029.43 -1992.14) rotate(135)" gradientUnits="userSpaceOnUse">
      <stop offset="0" stop-color="#9814a8" stop-opacity="0"/>
      <stop offset=".38" stop-color="#8f129b" stop-opacity=".07"/>
      <stop offset=".65" stop-color="#740d73" stop-opacity=".32"/>
      <stop offset=".89" stop-color="#45052e" stop-opacity=".72"/>
      <stop offset="1" stop-color="#260000"/>
    </linearGradient>
    <linearGradient id="Shades_-_003-2" data-name="Shades - 003" x1="5045.43" y1="1591.27" x2="4911.69" y2="1540.44" xlink:href="#Shades_-_003"/>
    <linearGradient id="Shades_-_003-3" data-name="Shades - 003" x1="4918.67" y1="1654.34" x2="4774.47" y2="1560.06" xlink:href="#Shades_-_003"/>
    <linearGradient id="Shades_-_003-4" data-name="Shades - 003" x1="5124.8" y1="1496.94" x2="5156.86" y2="1665.68" xlink:href="#Shades_-_003"/>
    <linearGradient id="Shades_-_003-5" data-name="Shades - 003" x1="639.25" y1="-1720.64" x2="778.35" y2="-1677.84" gradientTransform="translate(880.18 2028.25) rotate(-45)" xlink:href="#Shades_-_003"/>
    <linearGradient id="Shades_-_003-6" data-name="Shades - 003" x1="892.24" y1="-1687.53" x2="758.5" y2="-1738.35" gradientTransform="translate(880.18 2028.25) rotate(-45)" xlink:href="#Shades_-_003"/>
    <linearGradient id="Shades_-_003-7" data-name="Shades - 003" x1="765.48" y1="-1624.46" x2="621.28" y2="-1718.74" gradientTransform="translate(880.18 2028.25) rotate(-45)" xlink:href="#Shades_-_003"/>
    <linearGradient id="Shades_-_003-8" data-name="Shades - 003" x1="971.61" y1="-1781.86" x2="1003.67" y2="-1613.12" gradientTransform="translate(880.18 2028.25) rotate(-45)" xlink:href="#Shades_-_003"/>
  </defs>
  <g id="Layer_1-2" data-name="Layer_1">
    <g>
      <g>
        <path class="cls-8" d="M611.16,76.63l-8.77,8.77-27.77,27.77-21.43,21.43-34.62,34.62-23.07,23.07c-19.43,19.43-33.9,38.75-44.24,57.86-18.25,33.44-23.6,66.24-21.93,96.22,1.18,22.5,6.17,43.46,12.09,62.71.89,2.82,1.75,5.6,2.64,8.34-9.63-1.07-20.57-3.74-32.51-6.77-22.71-5.67-49.34-12.76-79.5-9.55-15.01,1.6-30.8,5.85-46.81,13.94-16.04,8.06-32.34,19.86-48.81,36.33l-67.99,67.99-33.83,33.83-21.43,21.43-36.54,36.54c-5.92,5.92-5.88,15.51,0,21.39,5.92,5.92,15.47,5.92,21.39,0l39.07-39.07c56.69,40.64,123.46,60.93,190.13,60.93,83.67.04,167.49-31.94,231.31-95.83,63.92-63.85,95.9-147.67,95.87-231.34,0-66.67-20.29-133.44-60.89-190.16l30.27-30.27,8.77-8.77c5.92-5.92,5.92-15.47,0-21.39-5.88-5.88-15.47-5.92-21.39,0ZM473.47,410.04c-4.78-14.4-9.09-29.34-11.62-44.64-3.85-22.96-3.92-46.56,3.64-71.59,4.31-14.08,11.05-28.74,21.28-43.96-.21,4.42-.25,8.95-.14,13.4.39,15.65,2.28,31.16,4.28,45.99,3.07,22.18,6.35,43.07,6.24,59.79-.04,8.38-.93,15.62-2.67,21.43-1.82,5.81-4.31,10.16-7.95,13.87-4.14,4.06-8.06,6.92-11.94,8.95-.36-1.07-.75-2.17-1.1-3.24ZM257.81,472.76c12.69-12.69,24.67-21.68,35.97-28.06,19.86-11.09,37.65-14.33,55.22-14.15,13.19.21,26.28,2.53,39.29,5.56,9.8,2.25,19.54,4.92,29.38,7.2,12.16,2.82,24.49,5.17,37.18,4.88.14.36.25.75.39,1.11,6.7,18.54,11.94,34.76,12.98,47.06.57,6.13.14,11.19-1.11,15.44-1.32,4.24-3.35,7.84-7.17,11.66-2.75,2.75-5.45,4.67-8.34,6.13-5.35,2.64-11.52,3.81-19.39,3.42-6.85-.29-14.83-1.85-23.6-4.42-15.33-4.49-32.98-11.94-51.84-19.68-14.12-5.77-28.91-11.73-44.24-16.51-20.75-6.42-42.5-10.91-64.74-9.63l10.02-10.02ZM624.13,327.19c0,76.08-28.95,151.95-86.99,209.99-58,58-133.87,86.95-209.95,86.95-58.97,0-117.9-17.43-168.42-52.34l31.05-31.05c11.02-11.02,22-17.93,33.12-22.21,9.73-3.74,19.64-5.53,30.02-5.78,18.08-.39,37.54,4.03,57.36,10.73,14.87,5.03,29.8,11.27,44.6,17.36,22.28,9.09,43.85,17.97,65.21,21.28,10.7,1.64,21.43,1.82,32.05-.75,10.59-2.53,20.75-8.06,29.16-16.54,4.81-4.81,8.7-10.2,11.44-15.94,5.28-10.84,6.56-22.53,5.7-33.8-.75-9.95-3.03-19.86-6.03-29.91-2.25-7.59-4.88-15.37-7.74-23.28.5-.21,1-.43,1.53-.68,7.59-3.6,14.9-8.77,21.64-15.51,7.74-7.74,12.76-17.18,15.65-26.99,2.53-8.59,3.6-17.51,3.78-26.6.39-15.94-1.71-32.51-3.99-49.41-3.57-25.24-7.56-51.12-6.27-74.08.57-11.48,2.46-22.14,6.06-31.8,3.64-9.63,8.91-18.25,16.83-26.24l31.84-31.84c34.9,50.52,52.34,109.45,52.34,168.42Z"/>
        <path class="cls-3" d="M486.74,250.06c-.16,4.42-.21,8.84-.1,13.24.39,15.64,2.25,31.12,4.27,45.95,3.05,22.21,6.36,43.08,6.24,59.81-.04,8.36-.92,15.59-2.68,21.4-1.79,5.84-4.28,10.19-7.96,13.9-4.11,4.09-8.02,6.84-11.93,8.87,3.33,9.8,6.82,19.35,10.15,28.69.52-.23,1.04-.41,1.55-.65,7.63-3.62,14.9-8.79,21.62-15.52,7.75-7.72,12.78-17.18,15.66-26.98,2.54-8.6,3.58-17.52,3.8-26.62.37-15.92-1.72-32.52-4.03-49.4-3.52-25.26-7.54-51.15-6.28-74.09.61-11.47,2.48-22.14,6.09-31.77,3.62-9.64,8.89-18.3,16.82-26.24l31.83-31.83s0,0,0,0l-54.88,54.88c-12.46,12.49-22.28,24.6-30.15,36.38Z"/>
        <path class="cls-4" d="M349.03,430.55c13.18.19,26.24,2.52,39.28,5.55,9.78,2.27,19.54,4.92,29.35,7.2,12.15,2.8,24.48,5.11,37.2,4.91-3.45-9.61-7.2-19.91-10.77-30.78-9.61-1.11-20.55-3.72-32.57-6.78-22.55-5.63-48.98-12.64-78.85-9.61l5.56,29.9c3.61-.28,7.21-.43,10.8-.39Z"/>
        <path class="cls-7" d="M451.34,417.99c6.42.19,12.05-.48,17.29-2.2,2-.67,3.97-1.56,5.94-2.57-.36-1.07-.74-2.1-1.1-3.17-4.78-14.4-9.09-29.34-11.62-44.64-3.85-22.96-3.92-46.56,3.64-71.59,4.27-14.02,11.12-28.61,21.25-43.77.61-16.52,3.31-33.1,10.12-48.88,4.92-11.39,12.03-22.26,21.68-31.9h-.01s-23.02,23.01-23.02,23.01c-19.43,19.43-33.9,38.75-44.24,57.86-18.25,33.44-23.6,66.24-21.93,96.22,1.18,22.5,6.17,43.46,12.09,62.71.87,2.83,1.77,5.6,2.68,8.35,2.5.29,4.93.5,7.25.56Z"/>
        <path class="cls-2" d="M252.97,512.76c18.08-.39,37.54,4.03,57.36,10.73,14.87,5.03,29.8,11.27,44.6,17.36,4.52,1.85,9.01,3.67,13.48,5.45l1.79-31.89c-4.39-1.8-8.87-3.64-13.42-5.51-14.12-5.77-28.91-11.73-44.24-16.51-20.72-6.42-42.49-10.87-64.74-9.61l-57.8,57.8c10.96-10.92,21.89-17.8,32.95-22.06,9.73-3.74,19.64-5.53,30.02-5.78Z"/>
      </g>
      <g>
        <path class="cls-8" d="M43.25,577.77l8.77-8.77,27.77-27.77,21.43-21.43,34.62-34.62,23.07-23.07c19.43-19.43,33.9-38.75,44.24-57.86,18.25-33.44,23.6-66.24,21.93-96.22-1.18-22.5-6.17-43.46-12.09-62.71-.89-2.82-1.75-5.6-2.64-8.34,9.63,1.07,20.57,3.74,32.51,6.77,22.71,5.67,49.34,12.76,79.5,9.55,15.01-1.6,30.8-5.85,46.81-13.94,16.04-8.06,32.34-19.86,48.81-36.33l67.99-67.99,33.83-33.83,21.43-21.43,36.54-36.54c5.92-5.92,5.88-15.51,0-21.39-5.92-5.92-15.47-5.92-21.39,0l-39.07,39.07C460.62,20.29,393.84,0,327.17,0c-83.67-.04-167.49,31.94-231.31,95.83C31.94,159.68-.04,243.5,0,327.17c0,66.67,20.29,133.44,60.89,190.16l-30.27,30.27-8.77,8.77c-5.92,5.92-5.92,15.47,0,21.39,5.88,5.88,15.47,5.92,21.39,0ZM180.93,244.36c4.78,14.4,9.09,29.34,11.62,44.64,3.85,22.96,3.92,46.56-3.64,71.59-4.31,14.08-11.05,28.74-21.28,43.96.21-4.42.25-8.95.14-13.4-.39-15.65-2.28-31.16-4.28-45.99-3.07-22.18-6.35-43.07-6.24-59.79.04-8.38.93-15.62,2.67-21.43,1.82-5.81,4.31-10.16,7.95-13.87,4.14-4.06,8.06-6.92,11.94-8.95.36,1.07.75,2.17,1.1,3.24ZM396.59,181.64c-12.69,12.69-24.67,21.68-35.97,28.06-19.86,11.09-37.65,14.33-55.22,14.15-13.19-.21-26.28-2.53-39.29-5.56-9.8-2.25-19.54-4.92-29.38-7.2-12.16-2.82-24.49-5.17-37.18-4.88-.14-.36-.25-.75-.39-1.11-6.7-18.54-11.94-34.76-12.98-47.06-.57-6.13-.14-11.19,1.11-15.44,1.32-4.24,3.35-7.84,7.17-11.66,2.75-2.75,5.45-4.67,8.34-6.13,5.35-2.64,11.52-3.81,19.39-3.42,6.85.29,14.83,1.85,23.6,4.42,15.33,4.49,32.98,11.94,51.84,19.68,14.12,5.77,28.91,11.73,44.24,16.51,20.75,6.42,42.5,10.91,64.74,9.63l-10.02,10.02ZM30.27,327.21c0-76.08,28.95-151.95,86.99-209.99C175.26,59.22,251.13,30.27,327.21,30.27c58.97,0,117.9,17.43,168.42,52.34l-31.05,31.05c-11.02,11.02-22,17.93-33.12,22.21-9.73,3.74-19.64,5.53-30.02,5.78-18.08.39-37.54-4.03-57.36-10.73-14.87-5.03-29.8-11.27-44.6-17.36-22.28-9.09-43.85-17.97-65.21-21.28-10.7-1.64-21.43-1.82-32.05.75-10.59,2.53-20.75,8.06-29.16,16.54-4.81,4.81-8.7,10.2-11.44,15.94-5.28,10.84-6.56,22.53-5.7,33.8.75,9.95,3.03,19.86,6.03,29.91,2.25,7.59,4.88,15.37,7.74,23.28-.5.21-1,.43-1.53.68-7.59,3.6-14.9,8.77-21.64,15.51-7.74,7.74-12.76,17.18-15.65,26.99-2.53,8.59-3.6,17.51-3.78,26.6-.39,15.94,1.71,32.51,3.99,49.41,3.57,25.24,7.56,51.12,6.27,74.08-.57,11.48-2.46,22.14-6.06,31.8-3.64,9.63-8.91,18.25-16.83,26.24l-31.84,31.84c-34.9-50.52-52.34-109.45-52.34-168.42Z"/>
        <path class="cls-1" d="M167.66,404.34c.16-4.42.21-8.84.1-13.24-.39-15.64-2.25-31.12-4.27-45.95-3.05-22.21-6.36-43.08-6.24-59.81.04-8.36.92-15.59,2.68-21.4,1.79-5.84,4.28-10.19,7.96-13.9,4.11-4.09,8.02-6.84,11.93-8.87-3.33-9.8-6.82-19.35-10.15-28.69-.52.23-1.04.41-1.55.65-7.63,3.62-14.9,8.79-21.62,15.52-7.75,7.72-12.78,17.18-15.66,26.98-2.54,8.6-3.58,17.52-3.8,26.62-.37,15.92,1.72,32.52,4.03,49.4,3.52,25.26,7.54,51.15,6.28,74.09-.61,11.47-2.48,22.14-6.09,31.77-3.62,9.64-8.89,18.3-16.82,26.24l-31.83,31.83s0,0,0,0l54.88-54.88c12.46-12.49,22.28-24.6,30.15-36.38Z"/>
        <path class="cls-6" d="M305.37,223.85c-13.18-.19-26.24-2.52-39.28-5.55-9.78-2.27-19.54-4.92-29.35-7.2-12.15-2.8-24.48-5.11-37.2-4.91,3.45,9.61,7.2,19.91,10.77,30.78,9.61,1.11,20.55,3.72,32.57,6.78,22.55,5.63,48.98,12.64,78.85,9.61l-5.56-29.9c-3.61.28-7.21.43-10.8.39Z"/>
        <path class="cls-9" d="M203.06,236.41c-6.42-.19-12.05.48-17.29,2.2-2,.67-3.97,1.56-5.94,2.57.36,1.07.74,2.1,1.1,3.17,4.78,14.4,9.09,29.34,11.62,44.64,3.85,22.96,3.92,46.56-3.64,71.59-4.27,14.02-11.12,28.61-21.25,43.77-.61,16.52-3.31,33.1-10.12,48.88-4.92,11.39-12.03,22.26-21.68,31.9h.01s23.02-23.01,23.02-23.01c19.43-19.43,33.9-38.75,44.24-57.86,18.25-33.44,23.6-66.24,21.93-96.22-1.18-22.5-6.17-43.46-12.09-62.71-.87-2.83-1.77-5.6-2.68-8.35-2.5-.29-4.93-.5-7.25-.56Z"/>
        <path class="cls-5" d="M401.44,141.64c-18.08.39-37.54-4.03-57.36-10.73-14.87-5.03-29.8-11.27-44.6-17.36-4.52-1.85-9.01-3.67-13.48-5.45l-1.79,31.89c4.39,1.8,8.87,3.64,13.42,5.51,14.12,5.77,28.91,11.73,44.24,16.51,20.72,6.42,42.49,10.87,64.74,9.61l57.8-57.8c-10.96,10.92-21.89,17.8-32.95,22.06-9.73,3.74-19.64,5.53-30.02,5.78Z"/>
      </g>
    </g>
  </g>
</svg>
