<?xml version="1.0" standalone="no"?>
<!DOCTYPE svg PUBLIC "-//W3C//DTD SVG 20010904//EN"
 "http://www.w3.org/TR/2001/REC-SVG-20010904/DTD/svg10.dtd">
<svg version="1.0" xmlns="http://www.w3.org/2000/svg"
 width="735.000000pt" height="458.000000pt" viewBox="0 0 735.000000 458.000000"
 preserveAspectRatio="xMidYMid meet">

<g transform="translate(0.000000,458.000000) scale(0.100000,-0.100000)"
fill="#000000" stroke="none">
<path d="M3580 4092 c-52 -30 -147 -86 -210 -123 -107 -62 -270 -158 -467
-273 -46 -27 -80 -52 -78 -56 3 -4 -2 -11 -11 -14 -8 -3 -12 -2 -9 4 3 6 -1 7
-9 4 -9 -3 -13 -11 -9 -17 3 -6 1 -7 -5 -3 -12 7 -62 -21 -62 -35 0 -5 12 -2
28 8 25 16 26 16 11 0 -16 -18 -64 -33 -54 -16 9 13 -7 11 -27 -5 -22 -16 -23
-26 -2 -26 8 0 12 5 9 10 -7 12 39 4 65 -11 17 -9 10 -12 -40 -13 -41 -2 -37
-32 5 -40 19 -4 33 -11 30 -16 -3 -4 1 -10 7 -13 7 -2 10 -8 6 -12 -4 -4 -14
-2 -22 4 -11 9 -16 9 -22 0 -4 -7 -3 -9 4 -5 6 3 13 2 16 -3 3 -5 -8 -14 -24
-21 -17 -7 -30 -16 -30 -20 0 -4 29 8 65 27 39 20 63 39 59 45 -4 7 -2 8 4 4
14 -8 73 24 66 35 -2 4 1 11 7 15 8 4 9 3 5 -4 -11 -18 0 -15 59 19 31 18 52
35 48 41 -3 7 -1 8 6 4 6 -4 28 2 49 15 20 12 57 33 82 47 80 45 372 213 458
263 45 27 85 49 87 49 5 0 228 -129 775 -448 l325 -189 65 35 c112 61 109 55
43 93 -68 38 -603 347 -683 394 -30 18 -86 50 -125 73 -38 22 -136 78 -216
125 -80 46 -154 89 -165 95 -15 8 -37 -1 -114 -46z m-800 -527 c-7 -8 -20 -14
-29 -14 -13 1 -13 2 2 6 9 2 17 9 17 14 0 5 5 9 11 9 8 0 8 -5 -1 -15z m65
-55 c3 -6 -1 -7 -9 -4 -18 7 -21 14 -7 14 6 0 13 -4 16 -10z m-20 -18 c-3 -3
-11 0 -18 7 -9 10 -8 11 6 5 10 -3 15 -9 12 -12z"/>
<path d="M2630 3540 c-9 -6 -10 -10 -3 -10 6 0 15 5 18 10 8 12 4 12 -15 0z"/>
<path d="M2678 3453 c7 -3 16 -2 19 1 4 3 -2 6 -13 5 -11 0 -14 -3 -6 -6z"/>
<path d="M2643 3399 c3 -9 0 -22 -6 -29 -8 -9 -5 -8 10 1 12 7 19 16 15 19 -4
3 -11 10 -16 15 -6 6 -7 4 -3 -6z"/>
<path d="M5023 3267 l-73 -42 0 -100 0 -100 78 -44 77 -43 83 43 82 42 0 101
0 101 -75 43 c-41 23 -80 42 -87 42 -7 0 -46 -19 -85 -43z"/>
<path d="M3203 3082 l-163 -2 0 -115 0 -115 413 0 c341 0 422 -3 465 -15 183
-55 262 -280 153 -440 -33 -49 -99 -100 -149 -116 -44 -13 -169 -18 -512 -20
-205 -1 -243 -3 -192 -11 61 -10 73 -17 36 -22 -30 -5 -28 -26 3 -26 27 0 28
-1 25 -50 -3 -33 0 -50 8 -50 6 0 9 -4 5 -9 -3 -5 3 -12 12 -15 10 -3 6 -4
-10 -2 -15 2 -30 -1 -33 -5 -3 -5 23 -10 58 -11 l63 -1 -55 -6 c-116 -13 -12
-21 256 -21 392 0 485 23 618 155 106 103 156 226 156 377 0 230 -149 428
-380 504 -48 16 -92 18 -335 19 -154 0 -353 -1 -442 -3z m-98 -212 c3 -5 1
-10 -4 -10 -6 0 -11 5 -11 10 0 6 2 10 4 10 3 0 8 -4 11 -10z m322 -816 c-3
-3 -12 -4 -19 -1 -8 3 -5 6 6 6 11 1 17 -2 13 -5z"/>
<path d="M5188 2800 l-78 -45 0 -648 0 -647 -46 -28 c-134 -78 -227 -133 -294
-171 -86 -50 -263 -153 -395 -231 -49 -29 -157 -92 -240 -140 -198 -115 -225
-131 -225 -137 0 -2 5 -1 12 3 7 4 8 3 4 -5 -4 -6 -12 -9 -17 -5 -5 3 -32 -8
-59 -25 -28 -17 -56 -31 -63 -32 -6 0 -3 -4 8 -8 11 -5 35 -6 54 -3 22 3 36 0
42 -9 12 -19 11 -89 -1 -89 -5 0 -13 -1 -17 -2 -5 -1 -10 11 -13 28 -5 27 -6
27 -12 6 -4 -13 -1 -28 7 -36 12 -12 7 -17 -33 -35 -26 -11 -41 -20 -33 -21
14 0 121 56 131 69 3 3 10 7 17 8 6 1 44 22 85 46 40 24 125 73 188 109 180
103 374 215 900 520 74 43 141 81 148 86 10 6 12 163 10 748 l-3 740 -77 -46z
m-1298 -2090 c-6 -11 -19 -20 -30 -20 -10 0 -27 -3 -37 -6 -10 -3 2 6 27 19
25 14 46 26 48 26 1 1 -2 -8 -8 -19z m87 -73 c-2 -6 -10 -12 -18 -15 -11 -3
-11 -2 1 7 13 9 13 11 0 11 -9 0 -21 -5 -28 -12 -9 -9 -12 -9 -12 0 0 7 5 12
11 12 5 0 8 4 5 9 -3 4 6 6 20 3 14 -2 23 -9 21 -15z"/>
<path d="M3043 2220 c0 -25 2 -35 4 -22 2 12 2 32 0 45 -2 12 -4 2 -4 -23z"/>
<path d="M3263 1980 c0 -25 2 -35 4 -22 2 12 2 32 0 45 -2 12 -4 2 -4 -23z"/>
<path d="M4035 1884 c-27 -8 -76 -17 -108 -21 l-57 -6 26 -44 c14 -24 40 -70
57 -102 18 -32 54 -96 81 -142 l50 -84 133 -1 c73 0 133 1 133 2 0 2 -52 96
-116 209 -80 140 -122 205 -133 204 -9 -1 -38 -8 -66 -15z"/>
<path d="M3695 630 c-3 -5 -1 -10 4 -10 6 0 11 5 11 10 0 6 -2 10 -4 10 -3 0
-8 -4 -11 -10z"/>
<path d="M3720 596 c0 -2 7 -7 16 -10 8 -3 12 -2 9 4 -6 10 -25 14 -25 6z"/>
<path d="M3820 570 c-9 -6 -10 -10 -3 -10 6 0 15 5 18 10 8 12 4 12 -15 0z"/>
</g>
</svg>
